<svg width="63" height="63" viewBox="0 0 63 63" fill="none" xmlns="http://www.w3.org/2000/svg">
<g clip-path="url(#clip0_105_3862)">
<path d="M31.3574 62.9996C14.0396 62.9996 0 48.8963 0 31.4996C0 14.103 13.9683 -0.000366211 31.3574 -0.000366211C48.7467 -0.000366211 62.7149 14.103 62.7149 31.4996C62.7149 48.8963 48.6753 62.9996 31.3574 62.9996Z" fill="#FFF100"/>
<path d="M23.8378 18.4706C16.711 18.4706 10.8672 24.341 10.8672 31.5001C10.8672 38.7309 16.711 44.5297 23.8378 44.5297C30.9645 44.5297 36.8084 38.6593 36.8084 31.5001C36.8084 24.341 30.9645 18.4706 23.8378 18.4706Z" fill="#1A1A1A"/>
<path d="M47.1786 26.8111H41.0142V36.1896H47.1786C49.7567 36.1896 51.8467 34.0902 51.8467 31.5004C51.8467 28.9106 49.7567 26.8111 47.1786 26.8111Z" fill="#1A1A1A"/>
</g>
<defs>
<clipPath id="clip0_105_3862">
<rect width="62.7149" height="63" fill="white"/>
</clipPath>
</defs>
</svg>
